<svg xmlns="http://www.w3.org/2000/svg" xmlns:xlink="http://www.w3.org/1999/xlink" viewBox="0 0 7750.57 2637.27"><defs><style>.cls-1{isolation:isolate;}.cls-2{fill:#e52713;}.cls-3{fill:#504f4f;}.cls-4{fill:url(#Dégradé_sans_nom_31);}.cls-5{fill:url(#Dégradé_sans_nom_10);}.cls-6,.cls-7,.cls-8,.cls-9{mix-blend-mode:multiply;opacity:0.4;}.cls-6{fill:url(#Dégradé_sans_nom_91);}.cls-7{fill:url(#Dégradé_sans_nom_92);}.cls-8{fill:url(#Dégradé_sans_nom_68);}.cls-9{fill:url(#Dégradé_sans_nom_94);}</style><linearGradient id="Dégradé_sans_nom_31" x1="-205.83" y1="1975.31" x2="1493.21" y2="1493.68" gradientUnits="userSpaceOnUse"><stop offset="0" stop-color="#9f9f9f"/><stop offset="0.05" stop-color="#939393"/><stop offset="0.16" stop-color="#7b7a7a"/><stop offset="0.3" stop-color="#686767"/><stop offset="0.45" stop-color="#5a5959"/><stop offset="0.64" stop-color="#525151"/><stop offset="1" stop-color="#504f4f"/></linearGradient><linearGradient id="Dégradé_sans_nom_10" x1="297.84" y1="980.38" x2="1882.75" y2="905.48" gradientUnits="userSpaceOnUse"><stop offset="0" stop-color="#e41e19"/><stop offset="0.22" stop-color="#e4221d"/><stop offset="0.46" stop-color="#e22d2a"/><stop offset="0.69" stop-color="#e0413e"/><stop offset="0.93" stop-color="#dc5c5b"/><stop offset="1" stop-color="#db6565"/></linearGradient><linearGradient id="Dégradé_sans_nom_91" x1="1648.81" y1="1357.78" x2="-56.86" y2="458.81" gradientUnits="userSpaceOnUse"><stop offset="0.16" stop-color="#691a0b"/><stop offset="0.18" stop-color="#813f32" stop-opacity="0.84"/><stop offset="0.23" stop-color="#bf9e98" stop-opacity="0.42"/><stop offset="0.28" stop-color="#fff" stop-opacity="0"/></linearGradient><linearGradient id="Dégradé_sans_nom_92" x1="1106.96" y1="2224.35" x2="935.37" y2="1829.7" gradientUnits="userSpaceOnUse"><stop offset="0.45" stop-color="#fff" stop-opacity="0"/><stop offset="0.53" stop-color="#d2bab5" stop-opacity="0.3"/><stop offset="0.65" stop-color="#996359" stop-opacity="0.68"/><stop offset="0.74" stop-color="#762e20" stop-opacity="0.91"/><stop offset="0.8" stop-color="#691a0b"/></linearGradient><linearGradient id="Dégradé_sans_nom_68" x1="700.23" y1="1038.08" x2="379.52" y2="246.18" gradientUnits="userSpaceOnUse"><stop offset="0.2" stop-color="#6e2e2b"/><stop offset="0.24" stop-color="#753836" stop-opacity="0.95"/><stop offset="0.29" stop-color="#8a5654" stop-opacity="0.81"/><stop offset="0.35" stop-color="#ac8886" stop-opacity="0.57"/><stop offset="0.41" stop-color="#dbcccb" stop-opacity="0.25"/><stop offset="0.45" stop-color="#fff" stop-opacity="0"/></linearGradient><linearGradient id="Dégradé_sans_nom_94" x1="307.57" y1="1375.15" x2="1114.2" y2="1685.77" gradientUnits="userSpaceOnUse"><stop offset="0.22" stop-color="#6e2e2b"/><stop offset="0.26" stop-color="#733532" stop-opacity="0.96"/><stop offset="0.29" stop-color="#834c49" stop-opacity="0.86"/><stop offset="0.32" stop-color="#9c716f" stop-opacity="0.68"/><stop offset="0.35" stop-color="#c0a5a4" stop-opacity="0.43"/><stop offset="0.38" stop-color="#efe7e7" stop-opacity="0.11"/><stop offset="0.39" stop-color="#fff" stop-opacity="0"/></linearGradient></defs><g class="cls-1"><g id="Calque_6" data-name="Calque 6"><path class="cls-2" d="M2724.83,1307.4c-151.14,0-265.72,113.6-265.72,273.63,0,157,109.64,271.65,272.63,271.65,110.64,0,191.65-54.32,243-128.42l-81-64.19c-38.52,56.28-93.85,86.92-159,86.92-88.91,0-151.14-57.31-161-140.26h402C2987.58,1401.24,2863.12,1307.4,2724.83,1307.4Zm-147.19,211.4c17.78-65.21,73.1-110.65,146.2-110.65,69.15,0,121.51,37.55,136.33,110.65Z"/><path class="cls-2" d="M3453.78,1253.06c0,39.52,1,79,3,116.57-38.52-39.52-96.8-61.25-159-61.25-142.26,0-259.8,110.65-259.8,271.65,0,159,117.54,270.67,259.8,270.67,68.16,0,131.38-25.67,168.9-73.1l1,63.22h108.66V1078.21H3453.78Zm-140.26,485c-87.92,0-153.12-64.19-153.12-158,0-94.83,65.2-159,153.12-159,83,0,149.17,58.28,149.17,159C3462.69,1679.8,3396.5,1738.08,3313.52,1738.08Z"/><path class="cls-2" d="M3667.94,1455.67v9.67c0,221.28,160.21,384.39,383.45,384.39a629,629,0,0,0,103.72-8.91V1722.29c-31.61,5.94-64.2,9.88-95.81,9.88-155.08,0-258.06-113.14-258.06-265.28v-11.45c0-153.11,103-259.7,258.06-259.7,31.61,0,64.2,4,95.81,9.88V1087.08a630,630,0,0,0-103.72-8.89C3828.15,1078.19,3667.94,1234.4,3667.94,1455.67Z"/><path class="cls-2" d="M4500.8,1306.41c-56.28,0-101.74,19.75-131.38,54.33,1-35.57,2-74.09,2-113.61V1078.21H4248.91v762.61h122.51V1535.59c0-75.07,33.58-114.59,95.8-114.59,61.25,0,93.86,39.52,93.86,114.59v305.23h122.48V1527.69C4683.56,1387.41,4616.39,1306.41,4500.8,1306.41Z"/><path class="cls-2" d="M5192.27,1381.48c-37.55-47.41-100.77-73.1-168.93-73.1-142.24,0-259.8,110.65-259.8,271.65,0,159,117.56,270.67,259.8,270.67,68.16,0,131.38-25.67,168.93-73.1l1,63.22h108.68V1318.26H5193.24Zm-153.11,356.6c-87.92,0-153.12-64.19-153.12-158,0-94.83,65.2-159,153.12-159,83,0,149.14,58.28,149.14,159C5188.3,1679.8,5122.14,1738.08,5039.16,1738.08Z"/><rect class="cls-2" x="5414.49" y="1078.21" width="122.48" height="153.11"/><rect class="cls-2" x="5414.49" y="1318.26" width="122.48" height="522.56"/><path class="cls-2" d="M5860,1306.41c-136.32,0-217.33,84-217.33,223.25v311.16h122.5v-307.2c0-73.1,33.58-112.62,94.83-112.62,60.25,0,94.83,39.52,94.83,112.62v307.2h122.48V1529.66C6077.27,1390.37,5995.29,1306.41,5860,1306.41Z"/><polygon class="cls-3" points="6283.7 1078.69 6217.53 1078.69 6217.53 1840.82 6574.14 1840.82 6574.14 1778.6 6283.7 1778.6 6283.7 1078.69"/><path class="cls-3" d="M7041.33,1417.05c-35.55-65.21-112.59-107.68-200.51-107.68C6697.58,1309.37,6583,1422,6583,1581c0,157,114.59,269.67,257.83,269.67,87.92,0,165-41.49,200.51-106.68v96.8h58.28V1319.25h-58.28Zm-193.6,373.4c-115.59,0-200.55-87.92-200.55-209.42,0-122.5,85-211.4,200.55-211.4,105.68,0,194.6,74.1,194.6,211.4C7042.33,1717.35,6953.41,1790.45,6847.73,1790.45Z"/><path class="cls-3" d="M7491.74,1309.37c-83.95,0-159,39.52-196.57,100.76,1-36.56,2-75.08,2-112.61V1080.19h-63.23v760.63h58.29V1746c36.55,64.22,113.62,104.71,199.54,104.71,143.23,0,258.83-112.62,258.83-269.67C7750.57,1422,7635,1309.37,7491.74,1309.37Zm-5.91,481.08c-105.71,0-194.61-73.1-194.61-209.42,0-137.3,88.9-211.4,194.61-211.4,115.56,0,200.51,88.9,200.51,211.4C7686.34,1702.53,7601.39,1790.45,7485.83,1790.45Z"/><path class="cls-2" d="M2401.5,1293.29c0-138.29-90.87-214.36-237.08-214.36H1943.15v761.89h128.42V1498.75l243.13,341.86h156.08l-258.94-346.8C2330.39,1477,2401.5,1399,2401.5,1293.29ZM2071.57,1397V1190.55h85.94c71.12,0,112.61,39.52,112.61,102.74S2228.63,1397,2157.51,1397Z"/><path class="cls-4" d="M1083.46,1879.23l-72.89,187.61c-67.83,174.58-266.43,262-441,194.2-87.44-34-152.93-100.41-188.16-180.41s-40-173.16-6-260.59l72.78-187.32,121.94-313.84a340.12,340.12,0,0,1,73.33-114.13c92.74-94.59,237.1-130.8,367.68-80.07,87.43,34,152.81,100.7,188.15,180.41a346.2,346.2,0,0,1,29,126.9,340.48,340.48,0,0,0,73.45-114.42L1423.53,1004A690.53,690.53,0,0,0,788.44,756.93C591.74,785.47,411.57,898.4,301.79,1072a693.63,693.63,0,0,0-60,119.31L47.05,1692.47C-91.31,2048.58,85.89,2451,442,2589.35s758.23-38.95,896.59-395l194.73-501.16a693.73,693.73,0,0,0,36.27-128.52C1459.93,1737.94,1280.16,1850.69,1083.46,1879.23Z"/><path class="cls-5" d="M1430.17,47.06C1074.06-91.31,671.65,85.9,533.4,441.71L338.56,943.16A697.78,697.78,0,0,0,302.17,1072C412,898.36,592.12,785.43,788.82,756.89l72.89-187.61C929.54,394.7,1128,307.54,1302.6,375.37c87.44,34,152.93,100.41,188.16,180.41a338.19,338.19,0,0,1,6.15,260.31l-73,187.89-121.83,313.55A340.48,340.48,0,0,1,1228.63,1432c-92.91,94.19-236.87,130.22-367.44,79.49C773.75,1477.47,708.26,1411,673,1331a340,340,0,0,1-29.23-126.32,340.12,340.12,0,0,0-73.33,114.13L448.53,1632.68a690.56,690.56,0,0,0,635.31,246.52c196.7-28.54,376.47-141.3,486.13-314.62A696.18,696.18,0,0,0,1630.1,1445l194.84-501.44C1963.19,587.72,1786.28,185.42,1430.17,47.06Z"/><path class="cls-6" d="M1010.85,1126.31c87.79,34.13,153.5,100.81,188.91,181.11a344.85,344.85,0,0,1,28.9,125.29,337,337,0,0,0,72.9-113.45l73.2-188.32a.6.6,0,0,0,.4-.1L1423.91,1004c-55.09-68-159.09-159.82-286.4-206-116.59-42.27-236.46-56.72-351.38-39.85a.9.9,0,0,0-.5.1,695.21,695.21,0,0,0-161.7,43.94"/><path class="cls-7" d="M567.8,2262.58c103.06,40.06,214.5,26,302.6-28.16,3.74-2.36,7.48-4.72,11.23-7.18,3.54-2.27,7-4.73,10.43-7.19,3.25-2.26,6.4-4.63,9.55-7.18a316.93,316.93,0,0,0,35.73-31.51,341.78,341.78,0,0,0,73.44-114.28l72.75-187.24c196.58-28.74,376.33-141.55,486-314.91a700.82,700.82,0,0,1-36.32,128.76l-195.11,501.95a691.31,691.31,0,0,1-207.31,285.67c-.69.59-1.38,1.08-2.07,1.67-1.08.89-2.27,1.78-3.35,2.66-5,4.14-10.14,8.07-15.35,12-6.89,5.12-13.79,10.14-20.87,15.06-3.35,2.37-6.7,4.63-10.14,6.89-3.74,2.56-7.48,5-11.23,7.49-5,3.15-10,6.3-15.06,9.35s-9.94,6-15.06,8.86-10,5.71-15.16,8.46a1.63,1.63,0,0,0-.69.4c-5.21,2.85-10.53,5.51-15.85,8.27-3.74,1.87-7.48,3.74-11.22,5.51-20.77,9.94-42,19-63.69,26.87-4.33,1.58-8.76,3.15-13.19,4.63q-11.22,3.84-22.44,7.38A697.06,697.06,0,0,1,792,2630a689.32,689.32,0,0,1-263.35-12.3"/><path class="cls-8" d="M896.75,501.33a342.63,342.63,0,0,0-36.59,69.5L787,759.12a694.33,694.33,0,0,0-260.13,94.34c-5,3-10,6.19-15,9.33-3.83,2.46-7.57,4.92-11.2,7.47-3.44,2.17-6.78,4.43-10.12,6.88-7.08,4.82-14,9.83-20.84,15A688.37,688.37,0,0,0,301,1074.28a675.17,675.17,0,0,1,20.14-83c1.57-5.21,3.25-10.42,4.92-15.53s3.53-10.42,5.5-15.53c1.67-4.62,3.44-9.14,5.21-13.75L531.63,444.94A688.43,688.43,0,0,1,680,213.69"/><path class="cls-9" d="M1206.7,1563.72,1134,1751l-48.84,125.6c-114.88,17.1-235.75,8.14-351.52-36.87a689.41,689.41,0,0,1-285.09-207.07l49.13-127.93a3.47,3.47,0,0,1,1-.19L571.56,1317a336.85,336.85,0,0,1,72-112.62A339.4,339.4,0,0,0,672.88,1330c35.19,80.1,100.73,146.53,188.1,180.43,130.61,50.81,274.57,14.74,367.44-79.5a13.45,13.45,0,0,0,1.18-1.28A338.46,338.46,0,0,1,1206.7,1563.72Z"/></g></g></svg>